<svg 
          width="26.26732635498047" 
          height="15.485718727111816" fill="none" 
          xmlns="http://www.w3.org/2000/svg">
          <path d="M 25.282428325964986 11.257145273352178 C 25.228142593976717 11.200002399773268 25.173855207746165 11.20000196551074 25.119569475757896 11.14285909193183 L 14.208138337043113 6.171430908508938 L 14.208138337043113 6.000000546464616 C 14.208138337043113 5.657143296476212 14.370996345972959 5.371430039782849 14.696710745991783 5.142858545467215 C 15.185282313663205 4.800001295478811 15.510996293043405 4.285715454556012 15.673853493052817 3.7142867272818774 C 15.945282148949566 2.800000750019339 15.782424528301531 1.8857147727568004 15.29385296063011 1.14285745454827 C 14.805281392958689 0.4000001363397395 13.99099542526844 0 13.122423713456119 0 C 11.602423266319779 0 10.408137154488632 1.2571432272509422 10.408137154488632 2.857143636370675 C 10.408137154488632 3.485715249996146 10.896708722160053 4.0000010909189445 11.493851778075626 4.0000010909189445 C 12.0909948339912 4.0000010909189445 12.579566401662621 3.485715249996146 12.579566401662621 2.857143636370675 C 12.579566401662621 2.5714292727336074 12.796709313437294 2.28571490909654 13.122423713456119 2.28571490909654 C 13.285280913465531 2.28571490909654 13.448137684747117 2.3428575570292316 13.556709148723657 2.5142861820234335 C 13.665280612700197 2.6857148070176353 13.66528185439306 2.857143414981934 13.610996122404789 3.0857149092975686 C 13.556710390416518 3.200000656455386 13.502423004185967 3.2571433086455537 13.448137272197696 3.3142861822244623 C 12.525279816263296 4.00000068220127 12.036709089869124 4.971430158891657 12.036709089869124 6.057144727088591 L 12.036709089869124 6.228572909305311 L 1.1252769157361913 11.257145273352178 C 1.0709911837479211 11.257145273352178 1.016705868353673 11.314288581193615 0.9624201363654027 11.371431454772525 C 0.14813416867515627 11.94286018204666 -0.17758041739536828 12.914289863095886 0.09384823850138051 13.885718726709761 C 0.3652768943981293 14.857147590323637 1.1795627245719027 15.485718727111818 2.1024201805063023 15.485718727111818 L 24.14242672869686 15.485718727111818 C 25.119569864039704 15.485718727111818 25.879570540603314 14.857147590323637 26.150999196500063 13.885718726709761 C 26.476713596518888 12.800004158512827 26.096714293655232 11.828574000626313 25.282428325964986 11.257145273352178 Z M 23.87099807280011 13.08571763659493 L 2.373848836403051 13.08571763659493 L 13.122423713456119 8.171431453968411 L 23.87099807280011 13.08571763659493 Z" fill="rgb(116.00000068545341,123.0000002682209,132.0000073313713)"/>
        </svg>